<svg width="372" height="300" viewBox="0 0 372 300" fill="none" xmlns="http://www.w3.org/2000/svg">
<g clip-path="url(#clip0_152_362)">
<path fill-rule="evenodd" clip-rule="evenodd" d="M11.2631 284.481L11.2631 286.565L9.15714 286.565L9.15713 284.481L11.2631 284.481Z" fill="white"/>
<path fill-rule="evenodd" clip-rule="evenodd" d="M7.05114 273.345L7.05114 280.639L5.99814 280.639L5.99814 273.345L7.05114 273.345Z" fill="white"/>
<path fill-rule="evenodd" clip-rule="evenodd" d="M11.2631 266.376L11.2631 268.46L9.15714 268.46L9.15713 266.376L11.2631 266.376Z" fill="white"/>
<path fill-rule="evenodd" clip-rule="evenodd" d="M14.4221 254.196L14.4221 262.532L13.3691 262.532L13.3691 254.196L14.4221 254.196Z" fill="white"/>
<path fill-rule="evenodd" clip-rule="evenodd" d="M11.2631 248.274L11.2631 250.358L9.15714 250.358L9.15713 248.274L11.2631 248.274Z" fill="white"/>
<path fill-rule="evenodd" clip-rule="evenodd" d="M7.05114 237.137L7.05114 244.431L5.99814 244.431L5.99814 237.137L7.05114 237.137Z" fill="white"/>
<path fill-rule="evenodd" clip-rule="evenodd" d="M11.2631 230.168L11.2631 232.252L9.15714 232.252L9.15713 230.168L11.2631 230.168Z" fill="white"/>
<path fill-rule="evenodd" clip-rule="evenodd" d="M14.4221 217.989L14.4221 226.325L13.3691 226.325L13.3691 217.989L14.4221 217.989Z" fill="white"/>
<path fill-rule="evenodd" clip-rule="evenodd" d="M11.2631 212.062L11.2631 214.146L9.15714 214.146L9.15713 212.062L11.2631 212.062Z" fill="white"/>
<path fill-rule="evenodd" clip-rule="evenodd" d="M7.05114 200.925L7.05114 208.219L5.99814 208.219L5.99814 200.925L7.05114 200.925Z" fill="white"/>
<path fill-rule="evenodd" clip-rule="evenodd" d="M11.2631 193.956L11.2631 196.04L9.15714 196.04L9.15713 193.956L11.2631 193.956Z" fill="white"/>
<path fill-rule="evenodd" clip-rule="evenodd" d="M14.4221 181.777L14.4221 190.113L13.3691 190.113L13.3691 181.777L14.4221 181.777Z" fill="white"/>
<path fill-rule="evenodd" clip-rule="evenodd" d="M11.2631 175.855L11.2631 177.939L9.15714 177.939L9.15713 175.855L11.2631 175.855Z" fill="white"/>
<path fill-rule="evenodd" clip-rule="evenodd" d="M7.05114 164.718L7.05114 172.012L5.99814 172.012L5.99814 164.718L7.05114 164.718Z" fill="white"/>
<path fill-rule="evenodd" clip-rule="evenodd" d="M11.2631 157.749L11.2631 159.833L9.15714 159.833L9.15713 157.749L11.2631 157.749Z" fill="white"/>
<path fill-rule="evenodd" clip-rule="evenodd" d="M14.4221 145.57L14.4221 153.906L13.3691 153.906L13.3691 145.57L14.4221 145.57Z" fill="white"/>
<path fill-rule="evenodd" clip-rule="evenodd" d="M11.2631 139.643L11.2631 141.727L9.15714 141.727L9.15713 139.643L11.2631 139.643Z" fill="white"/>
<path fill-rule="evenodd" clip-rule="evenodd" d="M7.05114 128.506L7.05114 135.8L5.99814 135.8L5.99814 128.506L7.05114 128.506Z" fill="white"/>
<path fill-rule="evenodd" clip-rule="evenodd" d="M11.2631 121.537L11.2631 123.621L9.15714 123.621L9.15713 121.537L11.2631 121.537Z" fill="white"/>
<path fill-rule="evenodd" clip-rule="evenodd" d="M14.4221 109.358L14.4221 117.694L13.3691 117.694L13.3691 109.358L14.4221 109.358Z" fill="white"/>
<path fill-rule="evenodd" clip-rule="evenodd" d="M11.2631 103.436L11.2631 105.52L9.15714 105.52L9.15713 103.436L11.2631 103.436Z" fill="white"/>
<path fill-rule="evenodd" clip-rule="evenodd" d="M7.05112 92.2986L7.05112 99.5927L5.99812 99.5927L5.99812 92.2986L7.05112 92.2986Z" fill="white"/>
<path fill-rule="evenodd" clip-rule="evenodd" d="M11.2631 85.3298L11.2631 87.4137L9.15714 87.4137L9.15713 85.3298L11.2631 85.3298Z" fill="white"/>
<path fill-rule="evenodd" clip-rule="evenodd" d="M14.4221 73.1508L14.4221 81.4869L13.3691 81.4869L13.3691 73.1508L14.4221 73.1508Z" fill="white"/>
<path fill-rule="evenodd" clip-rule="evenodd" d="M11.2631 67.2239L11.2631 69.3079L9.15712 69.3079L9.15712 67.2239L11.2631 67.2239Z" fill="white"/>
<path fill-rule="evenodd" clip-rule="evenodd" d="M7.05112 56.0871L7.05112 63.3811L5.99812 63.3811L5.99812 56.0871L7.05112 56.0871Z" fill="white"/>
<path fill-rule="evenodd" clip-rule="evenodd" d="M11.2631 49.1181L11.2631 51.2022L9.15712 51.2022L9.15712 49.1181L11.2631 49.1181Z" fill="white"/>
<path fill-rule="evenodd" clip-rule="evenodd" d="M14.4221 36.9392L14.4221 45.2753L13.3691 45.2753L13.3691 36.9392L14.4221 36.9392Z" fill="white"/>
<path fill-rule="evenodd" clip-rule="evenodd" d="M11.2631 31.0165L11.2631 33.1005L9.15712 33.1005L9.15712 31.0165L11.2631 31.0165Z" fill="white"/>
<path fill-rule="evenodd" clip-rule="evenodd" d="M7.05112 19.8795L7.05112 27.1736L5.99812 27.1736L5.99812 19.8795L7.05112 19.8795Z" fill="white"/>
<path fill-rule="evenodd" clip-rule="evenodd" d="M11.2631 12.9108L11.2631 14.9948L9.15712 14.9948L9.15712 12.9108L11.2631 12.9108Z" fill="white"/>
<path fill-rule="evenodd" clip-rule="evenodd" d="M14.7658 289.832L16.8718 291.916L22.1368 291.916L24.2428 289.832L24.7693 289.832L24.7693 291.395L22.1368 294L16.8718 294L14.2393 291.395L14.2393 289.832L14.7658 289.832Z" fill="white"/>
<path fill-rule="evenodd" clip-rule="evenodd" d="M42.9483 280.779L45.5808 283.384L45.5808 284.947L45.0543 284.947L42.9483 282.863L37.6833 282.863L35.5773 284.947L35.0508 284.947L35.0508 283.384L37.6833 280.779L42.9483 280.779Z" fill="white"/>
<path fill-rule="evenodd" clip-rule="evenodd" d="M56.3888 289.832L58.4948 291.916L63.7598 291.916L65.8658 289.832L66.3923 289.832L66.3923 291.395L63.7598 294L58.4948 294L55.8623 291.395L55.8623 289.832L56.3888 289.832Z" fill="white"/>
<path fill-rule="evenodd" clip-rule="evenodd" d="M84.5713 280.779L87.2038 283.384L87.2038 284.947L86.6773 284.947L84.5713 282.863L79.3063 282.863L77.2003 284.947L76.6738 284.947L76.6738 283.384L79.3063 280.779L84.5713 280.779Z" fill="white"/>
<path fill-rule="evenodd" clip-rule="evenodd" d="M98.016 289.832L100.122 291.916L105.387 291.916L107.493 289.832L108.02 289.832L108.02 291.395L105.387 294L100.122 294L97.4895 291.395L97.4895 289.832L98.016 289.832Z" fill="white"/>
<path fill-rule="evenodd" clip-rule="evenodd" d="M126.198 280.779L128.831 283.384L128.831 284.947L128.305 284.947L126.198 282.863L120.933 282.863L118.827 284.947L118.301 284.947L118.301 283.384L120.933 280.779L126.198 280.779Z" fill="white"/>
<path fill-rule="evenodd" clip-rule="evenodd" d="M139.639 289.832L141.745 291.916L147.01 291.916L149.116 289.832L149.642 289.832L149.642 291.395L147.01 294L141.745 294L139.112 291.395L139.112 289.832L139.639 289.832Z" fill="white"/>
<path fill-rule="evenodd" clip-rule="evenodd" d="M167.821 280.779L170.454 283.384L170.454 284.947L169.927 284.947L167.821 282.863L162.556 282.863L160.45 284.947L159.924 284.947L159.924 283.384L162.556 280.779L167.821 280.779Z" fill="white"/>
<path fill-rule="evenodd" clip-rule="evenodd" d="M181.262 289.832L183.368 291.916L188.633 291.916L190.739 289.832L191.265 289.832L191.265 291.395L188.633 294L183.368 294L180.735 291.395L180.735 289.832L181.262 289.832Z" fill="white"/>
<path fill-rule="evenodd" clip-rule="evenodd" d="M209.444 280.779L212.077 283.384L212.077 284.947L211.55 284.947L209.444 282.863L204.179 282.863L202.073 284.947L201.547 284.947L201.547 283.384L204.179 280.779L209.444 280.779Z" fill="white"/>
<path fill-rule="evenodd" clip-rule="evenodd" d="M222.885 289.832L224.991 291.916L230.256 291.916L232.362 289.832L232.888 289.832L232.888 291.395L230.256 294L224.991 294L222.358 291.395L222.358 289.832L222.885 289.832Z" fill="white"/>
<path fill-rule="evenodd" clip-rule="evenodd" d="M251.067 280.779L253.7 283.384L253.7 284.947L253.173 284.947L251.067 282.863L245.802 282.863L243.696 284.947L243.17 284.947L243.17 283.384L245.802 280.779L251.067 280.779Z" fill="white"/>
<path fill-rule="evenodd" clip-rule="evenodd" d="M264.508 289.832L266.614 291.916L271.879 291.916L273.985 289.832L274.511 289.832L274.511 291.395L271.879 294L266.614 294L263.981 291.395L263.981 289.832L264.508 289.832Z" fill="white"/>
<path fill-rule="evenodd" clip-rule="evenodd" d="M292.695 280.779L295.327 283.384L295.327 284.947L294.801 284.947L292.695 282.863L287.43 282.863L285.324 284.947L284.797 284.947L284.797 283.384L287.43 280.779L292.695 280.779Z" fill="white"/>
<path fill-rule="evenodd" clip-rule="evenodd" d="M306.135 289.832L308.241 291.916L313.506 291.916L315.612 289.832L316.139 289.832L316.139 291.395L313.506 294L308.241 294L305.609 291.395L305.609 289.832L306.135 289.832Z" fill="white"/>
<path fill-rule="evenodd" clip-rule="evenodd" d="M334.318 280.779L336.95 283.384L336.95 284.947L336.424 284.947L334.318 282.863L329.053 282.863L326.947 284.947L326.42 284.947L326.42 283.384L329.053 280.779L334.318 280.779Z" fill="white"/>
<path fill-rule="evenodd" clip-rule="evenodd" d="M347.758 289.832L349.864 291.916L355.129 291.916L357.235 289.832L357.762 289.832L357.762 291.395L355.129 294L349.864 294L347.232 291.395L347.232 289.832L347.758 289.832Z" fill="white"/>
<path fill-rule="evenodd" clip-rule="evenodd" d="M14.7658 10.1565L16.8718 8.07249L22.1368 8.07249L24.2428 10.1565L24.7693 10.1565L24.7693 8.5935L22.1368 5.98846L16.8718 5.98846L14.2393 8.5935L14.2393 10.1565L14.7658 10.1565Z" fill="white"/>
<path fill-rule="evenodd" clip-rule="evenodd" d="M42.9483 19.209L45.5808 16.604L45.5808 15.041L45.0543 15.041L42.9483 17.125L37.6833 17.125L35.5773 15.041L35.0508 15.041L35.0508 16.604L37.6833 19.209L42.9483 19.209Z" fill="white"/>
<path fill-rule="evenodd" clip-rule="evenodd" d="M56.3888 10.1566L58.4948 8.07257L63.7598 8.07257L65.8658 10.1566L66.3923 10.1566L66.3923 8.59359L63.7598 5.98851L58.4948 5.98851L55.8623 8.59359L55.8623 10.1566L56.3888 10.1566Z" fill="white"/>
<path fill-rule="evenodd" clip-rule="evenodd" d="M84.5713 19.209L87.2038 16.604L87.2038 15.041L86.6773 15.041L84.5713 17.125L79.3063 17.125L77.2003 15.041L76.6738 15.041L76.6738 16.604L79.3063 19.209L84.5713 19.209Z" fill="white"/>
<path fill-rule="evenodd" clip-rule="evenodd" d="M98.016 10.1566L100.122 8.07256L105.387 8.07256L107.493 10.1566L108.019 10.1566L108.019 8.59357L105.387 5.98849L100.122 5.98849L97.4895 8.59357L97.4895 10.1566L98.016 10.1566Z" fill="white"/>
<path fill-rule="evenodd" clip-rule="evenodd" d="M126.198 19.209L128.831 16.604L128.831 15.041L128.304 15.041L126.198 17.125L120.933 17.125L118.827 15.041L118.301 15.041L118.301 16.604L120.933 19.209L126.198 19.209Z" fill="white"/>
<path fill-rule="evenodd" clip-rule="evenodd" d="M139.639 10.1566L141.745 8.07256L147.01 8.07256L149.116 10.1566L149.642 10.1566L149.642 8.59357L147.01 5.98849L141.745 5.98849L139.112 8.59357L139.112 10.1566L139.639 10.1566Z" fill="white"/>
<path fill-rule="evenodd" clip-rule="evenodd" d="M167.821 19.209L170.454 16.604L170.454 15.041L169.927 15.041L167.821 17.125L162.556 17.125L160.45 15.041L159.924 15.041L159.924 16.604L162.556 19.209L167.821 19.209Z" fill="white"/>
<path fill-rule="evenodd" clip-rule="evenodd" d="M181.262 10.1566L183.368 8.07256L188.633 8.07256L190.739 10.1566L191.265 10.1566L191.265 8.59357L188.633 5.98849L183.368 5.98849L180.735 8.59357L180.735 10.1566L181.262 10.1566Z" fill="white"/>
<path fill-rule="evenodd" clip-rule="evenodd" d="M209.444 19.209L212.077 16.604L212.077 15.041L211.55 15.041L209.444 17.125L204.179 17.125L202.073 15.041L201.547 15.041L201.547 16.604L204.179 19.209L209.444 19.209Z" fill="white"/>
<path fill-rule="evenodd" clip-rule="evenodd" d="M222.885 10.1566L224.991 8.07256L230.256 8.07256L232.362 10.1566L232.888 10.1566L232.888 8.59357L230.256 5.98849L224.991 5.98849L222.358 8.59357L222.358 10.1566L222.885 10.1566Z" fill="white"/>
<path fill-rule="evenodd" clip-rule="evenodd" d="M251.067 19.209L253.7 16.604L253.7 15.041L253.173 15.041L251.067 17.125L245.802 17.125L243.696 15.041L243.17 15.041L243.17 16.604L245.802 19.209L251.067 19.209Z" fill="white"/>
<path fill-rule="evenodd" clip-rule="evenodd" d="M264.508 10.1566L266.614 8.07256L271.879 8.07256L273.985 10.1566L274.511 10.1566L274.511 8.59357L271.879 5.98849L266.614 5.98849L263.981 8.59357L263.981 10.1566L264.508 10.1566Z" fill="white"/>
<path fill-rule="evenodd" clip-rule="evenodd" d="M292.695 19.209L295.327 16.604L295.327 15.041L294.801 15.041L292.695 17.125L287.43 17.125L285.324 15.041L284.797 15.041L284.797 16.604L287.43 19.209L292.695 19.209Z" fill="white"/>
<path fill-rule="evenodd" clip-rule="evenodd" d="M306.135 10.1566L308.241 8.07256L313.506 8.07256L315.612 10.1566L316.139 10.1566L316.139 8.59357L313.506 5.98849L308.241 5.98849L305.609 8.59357L305.609 10.1566L306.135 10.1566Z" fill="white"/>
<path fill-rule="evenodd" clip-rule="evenodd" d="M334.318 19.209L336.95 16.604L336.95 15.041L336.424 15.041L334.318 17.125L329.053 17.125L326.947 15.041L326.42 15.041L326.42 16.604L329.053 19.209L334.318 19.209Z" fill="white"/>
<path fill-rule="evenodd" clip-rule="evenodd" d="M347.758 10.1566L349.864 8.07256L355.129 8.07256L357.235 10.1566L357.762 10.1566L357.762 8.59357L355.129 5.98849L349.864 5.98849L347.232 8.59357L347.232 10.1566L347.758 10.1566Z" fill="white"/>
<path fill-rule="evenodd" clip-rule="evenodd" d="M362.843 284.481L362.843 286.565L360.737 286.565L360.737 284.481L362.843 284.481Z" fill="white"/>
<path fill-rule="evenodd" clip-rule="evenodd" d="M366.002 272.303L366.002 280.639L364.949 280.639L364.949 272.303L366.002 272.303Z" fill="white"/>
<path fill-rule="evenodd" clip-rule="evenodd" d="M362.843 266.376L362.843 268.46L360.737 268.46L360.737 266.376L362.843 266.376Z" fill="white"/>
<path fill-rule="evenodd" clip-rule="evenodd" d="M358.631 255.241L358.631 262.535L357.578 262.535L357.578 255.241L358.631 255.241Z" fill="white"/>
<path fill-rule="evenodd" clip-rule="evenodd" d="M362.843 248.272L362.843 250.356L360.737 250.356L360.737 248.272L362.843 248.272Z" fill="white"/>
<path fill-rule="evenodd" clip-rule="evenodd" d="M366.002 236.093L366.002 244.429L364.949 244.429L364.949 236.093L366.002 236.093Z" fill="white"/>
<path fill-rule="evenodd" clip-rule="evenodd" d="M362.843 230.166L362.843 232.25L360.737 232.25L360.737 230.166L362.843 230.166Z" fill="white"/>
<path fill-rule="evenodd" clip-rule="evenodd" d="M358.631 219.029L358.631 226.323L357.578 226.323L357.578 219.029L358.631 219.029Z" fill="white"/>
<path fill-rule="evenodd" clip-rule="evenodd" d="M362.843 212.06L362.843 214.144L360.737 214.144L360.737 212.06L362.843 212.06Z" fill="white"/>
<path fill-rule="evenodd" clip-rule="evenodd" d="M366.002 199.886L366.002 208.222L364.949 208.222L364.949 199.886L366.002 199.886Z" fill="white"/>
<path fill-rule="evenodd" clip-rule="evenodd" d="M362.843 193.959L362.843 196.043L360.737 196.043L360.737 193.959L362.843 193.959Z" fill="white"/>
<path fill-rule="evenodd" clip-rule="evenodd" d="M358.631 182.822L358.631 190.116L357.578 190.116L357.578 182.822L358.631 182.822Z" fill="white"/>
<path fill-rule="evenodd" clip-rule="evenodd" d="M362.843 175.853L362.843 177.937L360.737 177.937L360.737 175.853L362.843 175.853Z" fill="white"/>
<path fill-rule="evenodd" clip-rule="evenodd" d="M366.002 163.674L366.002 172.01L364.949 172.01L364.949 163.674L366.002 163.674Z" fill="white"/>
<path fill-rule="evenodd" clip-rule="evenodd" d="M362.843 157.747L362.843 159.831L360.737 159.831L360.737 157.747L362.843 157.747Z" fill="white"/>
<path fill-rule="evenodd" clip-rule="evenodd" d="M358.631 146.61L358.631 153.904L357.578 153.904L357.578 146.61L358.631 146.61Z" fill="white"/>
<path fill-rule="evenodd" clip-rule="evenodd" d="M362.843 139.641L362.843 141.725L360.737 141.725L360.737 139.641L362.843 139.641Z" fill="white"/>
<path fill-rule="evenodd" clip-rule="evenodd" d="M366.002 127.467L366.002 135.803L364.949 135.803L364.949 127.467L366.002 127.467Z" fill="white"/>
<path fill-rule="evenodd" clip-rule="evenodd" d="M362.843 121.54L362.843 123.624L360.737 123.624L360.737 121.54L362.843 121.54Z" fill="white"/>
<path fill-rule="evenodd" clip-rule="evenodd" d="M358.631 110.403L358.631 117.697L357.578 117.697L357.578 110.403L358.631 110.403Z" fill="white"/>
<path fill-rule="evenodd" clip-rule="evenodd" d="M362.843 103.434L362.843 105.518L360.737 105.518L360.737 103.434L362.843 103.434Z" fill="white"/>
<path fill-rule="evenodd" clip-rule="evenodd" d="M366.002 91.255L366.002 99.591L364.949 99.591L364.949 91.255L366.002 91.255Z" fill="white"/>
<path fill-rule="evenodd" clip-rule="evenodd" d="M362.843 85.328L362.843 87.4121L360.737 87.4121L360.737 85.328L362.843 85.328Z" fill="white"/>
<path fill-rule="evenodd" clip-rule="evenodd" d="M358.631 74.1912L358.631 81.4852L357.578 81.4852L357.578 74.1912L358.631 74.1912Z" fill="white"/>
<path fill-rule="evenodd" clip-rule="evenodd" d="M362.843 67.2223L362.843 69.3063L360.737 69.3063L360.737 67.2223L362.843 67.2223Z" fill="white"/>
<path fill-rule="evenodd" clip-rule="evenodd" d="M366.002 55.0476L366.002 63.3836L364.949 63.3836L364.949 55.0476L366.002 55.0476Z" fill="white"/>
<path fill-rule="evenodd" clip-rule="evenodd" d="M362.843 49.1206L362.843 51.2047L360.737 51.2047L360.737 49.1206L362.843 49.1206Z" fill="white"/>
<path fill-rule="evenodd" clip-rule="evenodd" d="M358.631 37.9838L358.631 45.2778L357.578 45.2778L357.578 37.9838L358.631 37.9838Z" fill="white"/>
<path fill-rule="evenodd" clip-rule="evenodd" d="M362.843 31.0148L362.843 33.0988L360.737 33.0988L360.737 31.0148L362.843 31.0148Z" fill="white"/>
<path fill-rule="evenodd" clip-rule="evenodd" d="M366.002 18.836L366.002 27.172L364.949 27.172L364.949 18.836L366.002 18.836Z" fill="white"/>
<path fill-rule="evenodd" clip-rule="evenodd" d="M362.843 12.9091L362.843 14.9931L360.737 14.9931L360.737 12.9091L362.843 12.9091Z" fill="white"/>
</g>
<defs>
<clipPath id="clip0_152_362">
<rect width="300" height="372" fill="white" transform="translate(1.52588e-05 300) rotate(-90)"/>
</clipPath>
</defs>
</svg>
